<svg width="92" height="93" viewBox="0 0 92 93" fill="none" xmlns="http://www.w3.org/2000/svg">
    <path d="M8.4018 72.9975V75.0746H0.477051V61.5455H2.99389V72.9975H8.4018Z" fill="white"/>
    <path d="M12.725 63.5477V67.2996H17.4593V69.2363H12.725V73.063H18.7317V75.0746H10.1988V61.5455H18.7317V63.5477H12.725Z"
          fill="white"/>
    <path d="M28.1103 69.9661L26.4636 65.4657C26.3825 65.2661 26.2983 65.0291 26.211 64.7546C26.1237 64.4802 26.0364 64.1839 25.949 63.8658C25.8679 64.1839 25.7837 64.4833 25.6964 64.764C25.6091 65.0385 25.5249 65.2786 25.4438 65.4844L23.8064 69.9661H28.1103ZM32.5546 75.0746H30.6085C30.3901 75.0746 30.2124 75.0216 30.0751 74.9156C29.9379 74.8033 29.835 74.6661 29.7664 74.5039L28.7559 71.7438H23.1515L22.141 74.5039C22.0911 74.6473 21.9945 74.7783 21.851 74.8968C21.7075 75.0154 21.5298 75.0746 21.3177 75.0746H19.3529L24.6766 61.5455H27.2402L32.5546 75.0746Z"
          fill="white"/>
    <path d="M38.0436 67.9826C38.5177 67.9826 38.9293 67.9233 39.2786 67.8048C39.6342 67.6863 39.9242 67.5241 40.1488 67.3183C40.3796 67.1062 40.5511 66.8567 40.6634 66.5698C40.7756 66.2828 40.8318 65.9678 40.8318 65.6248C40.8318 64.9387 40.6041 64.4116 40.1488 64.0436C39.6997 63.6756 39.0104 63.4916 38.081 63.4916H36.4718V67.9826H38.0436ZM44.5181 75.0746H42.2446C41.8142 75.0746 41.5023 74.9062 41.3089 74.5694L38.4646 70.2374C38.3586 70.0752 38.2401 69.9599 38.1091 69.8912C37.9844 69.8226 37.7972 69.7883 37.5477 69.7883H36.4718V75.0746H33.9549V61.5455H38.081C38.998 61.5455 39.7839 61.6421 40.4388 61.8355C41.1 62.0226 41.6395 62.2877 42.0574 62.6308C42.4816 62.9738 42.7935 63.3855 42.9931 63.8658C43.1927 64.3399 43.2925 64.8638 43.2925 65.4377C43.2925 65.893 43.2239 66.3234 43.0866 66.7288C42.9557 67.1343 42.7623 67.5023 42.5065 67.8329C42.257 68.1634 41.9452 68.4535 41.5709 68.703C41.2029 68.9525 40.7819 69.149 40.3078 69.2924C40.47 69.386 40.6197 69.4983 40.7569 69.6293C40.8942 69.754 41.0189 69.9037 41.1312 70.0784L44.5181 75.0746Z"
          fill="white"/>
    <path d="M57.3845 61.5455V75.0746H56.0933C55.8937 75.0746 55.7253 75.0434 55.5881 74.981C55.4571 74.9124 55.3292 74.8002 55.2045 74.6442L48.1405 65.6248C48.1779 66.0365 48.1966 66.4169 48.1966 66.7662V75.0746H45.9792V61.5455H47.2984C47.4045 61.5455 47.4949 61.5517 47.5698 61.5642C47.6508 61.5704 47.7194 61.5891 47.7756 61.6203C47.838 61.6453 47.8972 61.6858 47.9534 61.7419C48.0095 61.7918 48.0719 61.8604 48.1405 61.9478L55.2325 71.0046C55.2138 70.7863 55.1982 70.5711 55.1857 70.3591C55.1733 70.147 55.167 69.9505 55.167 69.7696V61.5455H57.3845Z"
          fill="white"/>
    <path d="M62.9235 75.0746H60.3973V61.5455H62.9235V75.0746Z" fill="white"/>
    <path d="M77.3579 61.5455V75.0746H76.0667C75.8671 75.0746 75.6987 75.0434 75.5615 74.981C75.4305 74.9124 75.3026 74.8002 75.1779 74.6442L68.1139 65.6248C68.1513 66.0365 68.1701 66.4169 68.1701 66.7662V75.0746H65.9526V61.5455H67.2718C67.3779 61.5455 67.4683 61.5517 67.5432 61.5642C67.6243 61.5704 67.6929 61.5891 67.749 61.6203C67.8114 61.6453 67.8706 61.6858 67.9268 61.7419C67.9829 61.7918 68.0453 61.8604 68.1139 61.9478L75.206 71.0046C75.1872 70.7863 75.1717 70.5711 75.1592 70.3591C75.1467 70.147 75.1405 69.9505 75.1405 69.7696V61.5455H77.3579Z"
          fill="white"/>
    <path d="M91.5234 68.2913V73.7647C90.8373 74.27 90.1044 74.6411 89.3247 74.8781C88.5512 75.1089 87.7217 75.2243 86.8359 75.2243C85.7319 75.2243 84.7308 75.0528 83.8326 74.7097C82.9406 74.3667 82.1765 73.8895 81.5403 73.2782C80.9103 72.6669 80.4238 71.9371 80.0807 71.0888C79.7377 70.2405 79.5661 69.3143 79.5661 68.31C79.5661 67.2933 79.7314 66.3608 80.062 65.5125C80.3926 64.6642 80.8604 63.9344 81.4654 63.3231C82.0767 62.7119 82.8159 62.2378 83.6829 61.901C84.5499 61.5642 85.5229 61.3958 86.602 61.3958C87.1509 61.3958 87.6624 61.4394 88.1365 61.5267C88.6167 61.6141 89.0596 61.7357 89.465 61.8916C89.8767 62.0413 90.251 62.2253 90.5878 62.4437C90.9246 62.662 91.2334 62.9021 91.5141 63.1641L90.7936 64.3055C90.6814 64.4864 90.5348 64.5987 90.3539 64.6424C90.173 64.6798 89.9765 64.633 89.7644 64.502C89.5586 64.3835 89.3528 64.265 89.1469 64.1465C88.9411 64.028 88.7103 63.9251 88.4546 63.8377C88.2051 63.7504 87.9213 63.6787 87.6031 63.6225C87.2913 63.5664 86.9295 63.5383 86.5178 63.5383C85.8504 63.5383 85.2454 63.6506 84.7027 63.8752C84.1663 64.0997 83.7078 64.4209 83.3273 64.8389C82.9468 65.2568 82.6537 65.7589 82.4478 66.3452C82.242 66.9315 82.1391 67.5865 82.1391 68.31C82.1391 69.0835 82.2482 69.7758 82.4666 70.3871C82.6911 70.9922 83.003 71.5068 83.4022 71.9309C83.8076 72.3488 84.2942 72.67 84.8618 72.8946C85.4294 73.1129 86.0625 73.2221 86.7611 73.2221C87.2601 73.2221 87.7061 73.169 88.099 73.063C88.492 72.957 88.8756 72.8135 89.2498 72.6326V70.1813H87.547C87.3848 70.1813 87.257 70.1376 87.1634 70.0503C87.0761 69.9567 87.0324 69.8445 87.0324 69.7135V68.2913H91.5234Z"
          fill="white"/>
    <path d="M11.664 90.91C12.0148 90.91 12.3096 90.8679 12.5481 90.7837C12.7867 90.6995 12.9762 90.5873 13.1165 90.4469C13.2616 90.3066 13.3645 90.1428 13.4253 89.9557C13.4908 89.7686 13.5235 89.5698 13.5235 89.3592C13.5235 89.1394 13.4885 88.9429 13.4183 88.7698C13.3481 88.592 13.2382 88.4423 13.0885 88.3207C12.9388 88.1944 12.7446 88.0985 12.506 88.033C12.2721 87.9675 11.9891 87.9348 11.657 87.9348H9.7553V90.91H11.664ZM9.7553 83.6964V86.6296H11.257C11.9026 86.6296 12.3891 86.5126 12.7166 86.2787C13.0487 86.0448 13.2148 85.6729 13.2148 85.163C13.2148 84.6343 13.0651 84.2577 12.7657 84.0332C12.4663 83.8086 11.9985 83.6964 11.3622 83.6964H9.7553ZM11.3622 82.2368C12.0265 82.2368 12.5949 82.2999 13.0674 82.4263C13.5399 82.5526 13.9259 82.7327 14.2253 82.9666C14.5293 83.2005 14.7515 83.4835 14.8919 83.8157C15.0322 84.1478 15.1024 84.5221 15.1024 84.9384C15.1024 85.177 15.0673 85.4062 14.9971 85.6261C14.927 85.8413 14.817 86.0448 14.6673 86.2366C14.5223 86.4237 14.3352 86.5945 14.106 86.7488C13.8814 86.9032 13.6124 87.0342 13.299 87.1418C14.6931 87.4552 15.3901 88.2084 15.3901 89.4013C15.3901 89.8317 15.3082 90.2294 15.1445 90.5943C14.9808 90.9592 14.7422 91.2749 14.4288 91.5416C14.1153 91.8036 13.7294 92.0094 13.2709 92.1591C12.8125 92.3088 12.2885 92.3837 11.6991 92.3837H7.86768V82.2368H11.3622Z"
          fill="white"/>
    <path d="M25.6701 88.5523L24.4351 85.177C24.3742 85.0273 24.3111 84.8495 24.2456 84.6437C24.1801 84.4378 24.1146 84.2156 24.0491 83.9771C23.9883 84.2156 23.9251 84.4402 23.8596 84.6507C23.7942 84.8565 23.731 85.0366 23.6702 85.191L22.4422 88.5523H25.6701ZM29.0033 92.3837H27.5437C27.3799 92.3837 27.2466 92.3439 27.1437 92.2644C27.0408 92.1802 26.9636 92.0772 26.9121 91.9556L26.1543 89.8855H21.951L21.1931 91.9556C21.1557 92.0632 21.0832 92.1614 20.9756 92.2503C20.868 92.3392 20.7347 92.3837 20.5756 92.3837H19.102L23.0948 82.2368H25.0175L29.0033 92.3837Z"
          fill="white"/>
    <path d="M39.5224 83.7876H36.4629V92.3837H34.5752V83.7876H31.5157V82.2368H39.5224V83.7876Z" fill="white"/>
    <path d="M51.3058 83.7876H48.2463V92.3837H46.3586V83.7876H43.2991V82.2368H51.3058V83.7876Z" fill="white"/>
    <path d="M61.9454 90.8258V92.3837H56.0018V82.2368H57.8894V90.8258H61.9454Z" fill="white"/>
    <path d="M68.556 83.7385V86.5524H72.1067V88.0049H68.556V90.875H73.0611V92.3837H66.6614V82.2368H73.0611V83.7385H68.556Z"
          fill="white"/>
    <path d="M83.5054 84.0823C83.4492 84.1806 83.3884 84.2531 83.3229 84.2998C83.2621 84.3419 83.1849 84.363 83.0914 84.363C82.9931 84.363 82.8855 84.3279 82.7686 84.2577C82.6563 84.1829 82.5206 84.101 82.3616 84.0121C82.2025 83.9233 82.0154 83.8437 81.8002 83.7736C81.5897 83.6987 81.3394 83.6613 81.0494 83.6613C80.7874 83.6613 80.5582 83.694 80.3617 83.7595C80.1652 83.8203 79.9991 83.9069 79.8635 84.0192C79.7325 84.1314 79.6342 84.2671 79.5687 84.4262C79.5032 84.5805 79.4705 84.7513 79.4705 84.9384C79.4705 85.177 79.536 85.3758 79.667 85.5349C79.8026 85.6939 79.9804 85.8296 80.2003 85.9419C80.4202 86.0541 80.6704 86.1547 80.9511 86.2436C81.2318 86.3325 81.5195 86.4284 81.8142 86.5313C82.109 86.6296 82.3967 86.7465 82.6774 86.8822C82.958 87.0132 83.2083 87.1816 83.4282 87.3874C83.6481 87.5886 83.8235 87.8365 83.9545 88.1312C84.0901 88.426 84.158 88.7838 84.158 89.2049C84.158 89.6633 84.0785 90.0937 83.9194 90.496C83.765 90.8937 83.5358 91.2422 83.2317 91.5416C82.9323 91.8363 82.5651 92.0702 82.13 92.2433C81.6949 92.4117 81.1967 92.4959 80.6353 92.4959C80.3126 92.4959 79.9944 92.4632 79.681 92.3977C79.3676 92.3369 79.0658 92.248 78.7758 92.131C78.4904 92.0141 78.2214 91.8737 77.9688 91.71C77.7162 91.5463 77.4916 91.3638 77.2952 91.1627L77.8495 90.2574C77.8963 90.1919 77.9571 90.1382 78.032 90.096C78.1068 90.0493 78.1863 90.0259 78.2706 90.0259C78.3875 90.0259 78.5138 90.075 78.6495 90.1732C78.7851 90.2668 78.9465 90.3721 79.1337 90.489C79.3208 90.606 79.5383 90.7136 79.7863 90.8118C80.0389 90.9054 80.3406 90.9521 80.6915 90.9521C81.2295 90.9521 81.6458 90.8258 81.9405 90.5732C82.2353 90.3159 82.3826 89.9487 82.3826 89.4715C82.3826 89.2049 82.3148 88.9873 82.1791 88.8189C82.0481 88.6505 81.8727 88.5102 81.6528 88.3979C81.433 88.2809 81.1827 88.1827 80.902 88.1032C80.6213 88.0236 80.336 87.9371 80.0459 87.8435C79.7559 87.75 79.4705 87.6377 79.1898 87.5067C78.9091 87.3757 78.6588 87.205 78.439 86.9944C78.2191 86.7839 78.0413 86.522 77.9057 86.2085C77.7747 85.8904 77.7092 85.4998 77.7092 85.0366C77.7092 84.6671 77.7817 84.3069 77.9267 83.956C78.0764 83.6051 78.2916 83.294 78.5723 83.0227C78.853 82.7514 79.1992 82.5338 79.6108 82.3701C80.0225 82.2064 80.495 82.1245 81.0283 82.1245C81.6271 82.1245 82.1791 82.2181 82.6844 82.4052C83.1896 82.5923 83.62 82.8543 83.9755 83.1911L83.5054 84.0823Z"
          fill="white"/>
    <path fill-rule="evenodd" clip-rule="evenodd"
          d="M35.9006 15.1667C33.3868 17.6764 31.8336 21.1425 31.8336 24.9736C31.8336 32.627 38.0379 38.8312 45.6912 38.8312C53.3446 38.8312 59.5488 32.627 59.5488 24.9736C59.5488 21.1425 57.9957 17.6764 55.4819 15.1667L57.1137 13.5323C60.0436 16.4574 61.8584 20.5047 61.8584 24.9736C61.8584 33.9025 54.6201 41.1408 45.6912 41.1408C36.7623 41.1408 29.524 33.9025 29.524 24.9736C29.524 20.5047 31.3388 16.4574 34.2688 13.5323L35.9006 15.1667Z"
          fill="white"/>
    <path fill-rule="evenodd" clip-rule="evenodd"
          d="M35.76 45.529C35.76 44.7637 36.3804 44.1433 37.1457 44.1433H54.2367C55.0021 44.1433 55.6225 44.7637 55.6225 45.529C55.6225 46.2944 55.0021 46.9148 54.2367 46.9148H37.1457C36.3804 46.9148 35.76 46.2944 35.76 45.529Z"
          fill="white"/>
    <path fill-rule="evenodd" clip-rule="evenodd"
          d="M40.6101 51.0721C40.6101 50.4343 41.1271 49.9173 41.7649 49.9173H49.6175C50.2553 49.9173 50.7723 50.4343 50.7723 51.0721C50.7723 51.7099 50.2553 52.2269 49.6175 52.2269H41.7649C41.1271 52.2269 40.6101 51.7099 40.6101 51.0721Z"
          fill="white"/>
    <path fill-rule="evenodd" clip-rule="evenodd"
          d="M35.0671 10.6651V13.38C35.6172 13.2867 36.316 13.1778 37.1387 13.069C39.2837 12.7855 42.2804 12.5019 45.6912 12.5019C49.1021 12.5019 52.0987 12.7855 54.2437 13.069C55.0665 13.1778 55.7652 13.2867 56.3154 13.38V10.6651C56.2969 10.6622 56.2782 10.6592 56.2593 10.6561C55.6168 10.5534 54.6988 10.416 53.6024 10.2786C51.4041 10.0032 48.5116 9.73047 45.6912 9.73041C42.8708 9.73036 39.9783 10.0031 37.7801 10.2786C36.6836 10.416 35.7657 10.5533 35.1232 10.6561C35.1042 10.6591 35.0855 10.6621 35.0671 10.6651ZM57.4702 9.68993L57.6808 8.55451C58.228 8.65604 58.625 9.1334 58.625 9.68993V14.771C58.625 15.1207 58.4665 15.4516 58.194 15.6708C57.9216 15.89 57.5646 15.9739 57.223 15.8991L57.2215 15.8988L57.2129 15.8969L57.1741 15.8887C57.1386 15.8812 57.0842 15.87 57.0118 15.8554C56.8669 15.8264 56.6498 15.7843 56.3672 15.7335C55.8019 15.6319 54.9752 15.4954 53.941 15.3587C51.871 15.0851 48.9782 14.8115 45.6912 14.8115C42.4043 14.8115 39.5114 15.0851 37.4414 15.3587C36.4072 15.4954 35.5805 15.6319 35.0152 15.7335C34.7326 15.7843 34.5155 15.8264 34.3706 15.8554C34.2982 15.87 34.2438 15.8812 34.2084 15.8887L34.1695 15.8969L34.1609 15.8988L34.1597 15.899C33.8181 15.9739 33.4609 15.89 33.1884 15.6708C32.916 15.4516 32.7575 15.1207 32.7575 14.771V9.68993C32.7575 9.13341 33.1544 8.65606 33.7016 8.55451L33.9123 9.68993C33.7016 8.55451 33.7014 8.55454 33.7016 8.55451L33.7075 8.55342L33.7221 8.55074L33.7767 8.54084C33.8243 8.53229 33.8939 8.51991 33.984 8.50427C34.1641 8.47299 34.4263 8.4286 34.7584 8.37549C35.4222 8.26931 36.3664 8.12807 37.4929 7.98689C39.7406 7.7052 42.7377 7.42076 45.6912 7.42081C48.6448 7.42087 51.6418 7.70531 53.8895 7.98697C55.016 8.12814 55.9602 8.26936 56.624 8.37552C56.9561 8.42862 57.2183 8.473 57.3984 8.50427C57.4885 8.51991 57.5581 8.53228 57.6057 8.54084L57.6603 8.55074L57.6749 8.55341L57.6808 8.55451C57.681 8.55453 57.6808 8.55451 57.4702 9.68993Z"
          fill="white"/>
    <path fill-rule="evenodd" clip-rule="evenodd"
          d="M19.5932 9.69812C19.6066 9.21704 19.917 8.79471 20.3721 8.63824L45.3158 0.0627365C45.5591 -0.0209118 45.8234 -0.0209124 46.0667 0.0627359L71.0103 8.63824C71.4668 8.79517 71.7775 9.21946 71.7893 9.70201C71.8011 10.1846 71.5116 10.6236 71.0634 10.8027L58.347 15.8838L57.49 13.739L67.3193 9.81155L45.6912 2.37594L24.0331 9.82189L33.6551 13.742L32.7837 15.8809L20.3119 10.7997C19.8662 10.6182 19.5798 10.1792 19.5932 9.69812Z"
          fill="white"/>
    <path d="M23.5229 5.85863C24.3883 5.85863 24.68 6.72476 24.68 7.16226L24.6778 7.59098L22.368 8.16843L22.368 7.30211C22.368 6.7248 22.6559 5.85863 23.5229 5.85863Z"
          fill="white"/>
    <path d="M28.4827 5.85863H23.5229L23.5228 7.55933L28.4827 5.85863Z" fill="white"/>
    <path fill-rule="evenodd" clip-rule="evenodd" d="M22.3643 15.5043V8.34454H24.6739V15.5043H22.3643Z" fill="white"/>
    <path d="M24.6739 16.1972H22.3643L21.4405 31.9024H25.5977L24.6739 16.1972Z" fill="white"/>
    <path d="M22.1333 15.7352C22.1333 15.4801 22.3401 15.2733 22.5953 15.2733H24.4429C24.698 15.2733 24.9048 15.4801 24.9048 15.7352V16.1972C24.9048 16.4523 24.698 16.6591 24.4429 16.6591H22.5953C22.3401 16.6591 22.1333 16.4523 22.1333 16.1972V15.7352Z"
          fill="white"/>
</svg>
